<?xml version="1.0" encoding="utf-8"?>
<!-- Generator: Adobe Illustrator 22.0.1, SVG Export Plug-In . SVG Version: 6.00 Build 0)  -->
<svg version="1.1" id="Layer_1" xmlns="http://www.w3.org/2000/svg" xmlns:xlink="http://www.w3.org/1999/xlink" x="0px" y="0px"
	 viewBox="0 0 1920 1080" style="enable-background:new 0 0 1920 1080;" xml:space="preserve">
<style type="text/css">
	.st0{fill:#FF320A;}
</style>
<g>
	<circle class="st0" cx="709.6" cy="602.3" r="27.5"/>
	<path class="st0" d="M653.2,624.9c2.9-1.9,4.6-3.5,7-6.9c0.2-0.3,0.4-0.7,0.7-1l0.1-0.2c0.6-1.1,1.1-2,1.6-3c0.2-0.5,0.5-1,0.7-1.6
		c0.3-0.9,0.7-1.9,1-3.3c0.2-1,0.8-3.8,0.6-7.5c0-0.4-0.1-1.7-0.1-1.7c0-0.2-0.1-1.1-0.2-1.8c0-0.4-0.1-0.9-0.1-1.3
		c-0.1-10.1,3-22.5,10.3-30c7.4-7.7,18.6-9.7,28.9-9.7c0.4,0,0.9,0,1.3,0l0.3,0l0.2,0c0.1,0,0.2,0,0.3,0c0.3,0,0.5,0,0.8,0.1
		l0.5,0.1c0.8,0.1,1.6,0.2,2.3,0.2l6.1-0.4c0.1,0,1.1-0.3,1.1-0.3c1.2-0.3,2.2-0.6,3.2-0.9c0.5-0.2,1-0.4,1.6-0.7
		c1-0.5,1.9-1,2.9-1.6c0.5-0.3,0.9-0.5,1.3-0.8c1.6-1.1,2.8-2.1,3.8-3.1c5.1-5.1,7.9-11.8,7.9-19c0-7.2-2.8-14-7.9-19.1
		c-5.1-5.1-11.9-7.9-19.1-7.9c-7.2,0-14,2.8-19,7.9c-1.1,1.1-2.1,2.3-3.1,3.8c-0.3,0.4-0.6,0.9-0.8,1.3c-0.6,0.9-1.1,1.9-1.5,2.8
		l-0.1,0.2c-0.2,0.5-0.4,1-0.6,1.4c-0.4,1-0.7,2.1-1,3.4c0,0-0.2,0.8-0.3,0.9l-0.4,5.9c0,0.5,0.1,0.9,0.1,1.4c0,0.3,0.1,0.6,0.1,0.9
		c0,0.3,0.1,0.6,0.1,0.9c0,0.3,0,0.6,0.1,0.9l0.1,0.3l0,0.3c0.3,10.3-1.7,23-9.1,30.6c-6.3,6.5-16.6,8.2-25.3,9.3
		c-2.5,0.3-5.1-0.5-6.9-2.3c-2-2.1-3.5-4.5-3.4-7c0.1-5.5,6.8-9.7,11.7-12.9c0,0,0,0,0,0c1.9-1.1,3.7-2.5,5.3-4.1
		c0.1,0,0.1-0.1,0.1-0.1c5.1-5.1,7.9-11.9,7.9-19.1c0-7.2-2.8-14-7.9-19.1c-6.2-6.2-14.9-9-23.9-7.5c-3.8,0.6-7.3,2.1-10.5,4.3
		c-14.2,9.9-15.4,29.6-3.8,41.3c1.6,1.6,3.4,3,5.3,4.1c4.4,3,10.9,7.1,10.9,12.9c0,5.5-6.3,10.2-10.7,13.4c-0.3,0.2-0.6,0.4-0.9,0.6
		c-1.6,1.1-2.8,2.1-3.8,3.1c-10.5,10.5-10.5,27.6,0,38.1c5.1,5.1,11.9,7.9,19.1,7.9C643.4,629.8,648.6,627.9,653.2,624.9z"/>
</g>
<g>
	<g>
		<path class="st0" d="M830.7,579.4l-22.7,39.2l-5.7,9.9l-5.7-9.9l-22.7-39.2l8.6-5l19.8,34.2l19.8-34.2L830.7,579.4z"/>
		<path class="st0" d="M871.1,574.8c3.6,0,7.1,0.7,10.4,2.1c3.2,1.4,6.1,3.3,8.6,5.7c2.5,2.5,4.4,5.3,5.7,8.6
			c1.4,3.3,2.1,6.8,2.1,10.5v25.2h-10.1v-4.2c-2.3,1.9-4.9,3.3-7.7,4.3c-2.9,1-5.9,1.6-9.1,1.6c-3.6,0-7.1-0.7-10.5-2.1
			c-3.2-1.4-6.1-3.3-8.6-5.7c-2.5-2.5-4.4-5.3-5.7-8.6c-1.4-3.3-2.1-6.8-2.1-10.4c0-3.6,0.7-7.1,2.1-10.5c1.4-3.2,3.3-6.1,5.7-8.6
			c2.5-2.5,5.3-4.4,8.6-5.7C864,575.5,867.5,574.8,871.1,574.8z M871.1,618.5c2.3,0,4.4-0.4,6.5-1.3c2-0.9,3.8-2.1,5.3-3.6
			c1.5-1.6,2.7-3.3,3.6-5.3c0.9-2.1,1.3-4.3,1.3-6.5c0-2.3-0.4-4.4-1.3-6.5c-0.8-2-2-3.8-3.6-5.3c-1.6-1.5-3.3-2.7-5.3-3.6
			c-2.1-0.9-4.3-1.3-6.5-1.3c-2.3,0-4.5,0.4-6.5,1.3c-2,0.9-3.8,2.1-5.3,3.6c-1.5,1.5-2.7,3.3-3.6,5.3c-0.9,2.1-1.3,4.3-1.3,6.5
			c0,2.3,0.4,4.4,1.3,6.5c0.9,2,2.1,3.8,3.6,5.3c1.5,1.5,3.3,2.7,5.3,3.6C866.6,618,868.8,618.5,871.1,618.5z M881.4,559.7
			L861,571.5l-2.9-5.1l19.1-13.9L881.4,559.7z"/>
		<path class="st0" d="M917.6,566.4h10.1v60.4h-10.1V566.4z"/>
		<path class="st0" d="M972.6,574.8c3.6,0,7.1,0.7,10.5,2.1c3.2,1.4,6.1,3.3,8.6,5.7c2.5,2.5,4.4,5.3,5.8,8.6
			c1.4,3.3,2.1,6.8,2.1,10.5v25.2h-10.1v-4.2c-2.3,1.9-4.9,3.3-7.7,4.3c-2.9,1-5.9,1.6-9.1,1.6c-3.6,0-7.1-0.7-10.5-2.1
			c-3.2-1.4-6.1-3.3-8.6-5.7c-2.5-2.5-4.4-5.3-5.8-8.6c-1.4-3.3-2.1-6.8-2.1-10.4c0-3.6,0.7-7.1,2.1-10.5c1.4-3.2,3.3-6.1,5.8-8.6
			c2.5-2.5,5.3-4.4,8.6-5.7C965.5,575.5,968.9,574.8,972.6,574.8z M972.6,618.5c2.3,0,4.4-0.4,6.5-1.3c2-0.9,3.8-2.1,5.3-3.6
			c1.5-1.6,2.7-3.3,3.6-5.3c0.9-2.1,1.3-4.3,1.3-6.5c0-2.3-0.5-4.4-1.3-6.5c-0.8-2-2-3.8-3.6-5.3c-1.6-1.5-3.3-2.7-5.3-3.6
			c-2.1-0.9-4.3-1.3-6.5-1.3c-2.3,0-4.5,0.4-6.5,1.3c-2,0.9-3.8,2.1-5.3,3.6c-1.5,1.5-2.7,3.3-3.6,5.3c-0.9,2.1-1.3,4.3-1.3,6.5
			c0,2.3,0.4,4.4,1.3,6.5c0.9,2,2.1,3.8,3.6,5.3c1.5,1.5,3.3,2.7,5.3,3.6C968.1,618,970.3,618.5,972.6,618.5z"/>
		<path class="st0" d="M1052.3,624.9c-0.2,0.1-0.4,0.2-0.5,0.3c-4.1,2.2-8.3,3.4-12.8,3.4c-1.3,0-2.7-0.1-4-0.3
			c-5.8-0.8-10.8-3.3-15-7.4c-0.6-0.6-1.1-1.1-1.6-1.7l7.7-6.5c0.3,0.4,0.6,0.7,1,1.1c0.6,0.5,1.1,1,1.8,1.5c2.6,2,5.6,3,8.9,3.2
			c0.4,0,0.8,0,1.2,0c2.9,0,5.7-0.8,8.3-2.3c1.4-0.8,2.3-2,2.7-3.6c0.1-0.5,0.2-1.1,0.2-1.6c0-1-0.3-1.9-0.8-2.9
			c-0.6-1-1.5-1.8-2.6-2.3c-0.8-0.3-1.6-0.5-2.4-0.5c-0.5,0-1.1,0.1-1.6,0.2c-0.4,0.1-0.9,0.3-1.5,0.5c-2.2,1-4.4,1.6-6.6,1.8
			c-0.5,0-0.9,0-1.4,0c-1.5,0-3-0.2-4.3-0.6c-2.9-0.9-5.2-2.2-6.7-3.7c-1-1-1.9-2.1-2.6-3.4c-1.1-1.8-1.7-3.8-2-5.9
			c-0.1-0.7-0.1-1.3-0.1-2c0-1.3,0.2-2.6,0.5-3.9c0.5-2,1.3-3.8,2.5-5.5c1.2-1.7,2.7-3.1,4.5-4.2c0.1-0.1,0.2-0.2,0.5-0.3
			c0.3-0.1,0.4-0.2,0.5-0.3c4.1-2.2,8.4-3.4,12.8-3.4c1.4,0,2.8,0.1,4.2,0.3c5.9,0.9,10.9,3.5,15.1,7.7l-7.1,7.1
			c-0.6-0.6-1.3-1.2-2-1.8c-2.7-1.9-5.6-3-8.9-3.2c-0.4,0-0.8,0-1.2,0c-2.9,0-5.7,0.8-8.3,2.3c-1.4,0.8-2.3,2-2.7,3.6
			c-0.2,0.5-0.3,1.1-0.3,1.6c0,1,0.3,1.9,0.8,2.9c0.6,1,1.5,1.8,2.6,2.3c0.8,0.3,1.6,0.5,2.4,0.5c0.5,0,1.1-0.1,1.6-0.2
			c0.5-0.1,1-0.3,1.5-0.5c2.2-1,4.4-1.6,6.6-1.8c0.5,0,1,0,1.4,0c1.5,0,3,0.2,4.3,0.6c2.9,0.9,5.1,2.2,6.7,3.7c1,1,1.9,2.1,2.6,3.4
			c1.1,1.8,1.7,3.8,2,5.9c0.1,0.7,0.2,1.4,0.2,2.1c0,1.3-0.2,2.6-0.5,3.9c-0.5,2-1.3,3.8-2.5,5.4c-1.2,1.7-2.7,3.1-4.5,4.2
			C1052.7,624.7,1052.5,624.8,1052.3,624.9z"/>
		<path class="st0" d="M1126.9,576.5v10.1l-33.5,30.2h33.5v10.1h-48.7v-10.1l33.8-30.2h-33.8v-10.1H1126.9z"/>
		<path class="st0" d="M1146.6,576.5h10.1v25.2c0,2.3,0.4,4.4,1.3,6.5c0.9,2,2.1,3.8,3.6,5.3c1.6,1.5,3.3,2.7,5.3,3.6
			c2.1,0.9,4.3,1.3,6.5,1.3c2.3,0,4.4-0.4,6.5-1.3c2-0.8,3.8-2,5.3-3.6c1.5-1.6,2.7-3.3,3.6-5.3c0.9-2.1,1.3-4.3,1.3-6.5v-25.2h10.1
			v25.2c0,3.6-0.7,7.1-2.1,10.4c-1.4,3.2-3.3,6.1-5.7,8.6c-2.5,2.5-5.3,4.4-8.6,5.7c-3.3,1.4-6.8,2.1-10.4,2.1
			c-3.6,0-7.1-0.7-10.5-2.1c-3.2-1.4-6.1-3.3-8.6-5.7c-2.5-2.5-4.4-5.3-5.7-8.6c-1.4-3.3-2.1-6.8-2.1-10.4V576.5z M1183.7,559.7
			l-20.4,11.7l-2.9-5.1l19.1-13.9L1183.7,559.7z"/>
		<path class="st0" d="M1230,566.4v13.8l4.1-2.4l5,8.7l-9.1,5.2v35H1220v-29.2l-4.1,2.3l-5-8.7l9.1-5.2v-19.6H1230z"/>
		<path class="st0" d="M1274.9,574.8c3.6,0,7.1,0.7,10.5,2.1c3.2,1.4,6.1,3.3,8.6,5.7c2.5,2.5,4.4,5.3,5.8,8.6
			c1.4,3.3,2.1,6.8,2.1,10.5c0,3.6-0.7,7.1-2.1,10.4c-1.4,3.2-3.3,6.1-5.8,8.6c-2.5,2.5-5.3,4.4-8.6,5.7c-3.3,1.4-6.8,2.1-10.5,2.1
			c-3.6,0-7.1-0.7-10.5-2.1c-3.2-1.4-6.1-3.3-8.6-5.7c-2.5-2.5-4.4-5.3-5.8-8.6c-1.4-3.3-2.1-6.8-2.1-10.4c0-3.6,0.7-7.1,2.1-10.5
			c1.4-3.2,3.3-6.1,5.8-8.6c2.5-2.5,5.3-4.4,8.6-5.7C1267.8,575.5,1271.3,574.8,1274.9,574.8z M1258.1,601.7c0,2.3,0.4,4.4,1.3,6.5
			c0.9,2,2.1,3.8,3.6,5.3c1.5,1.5,3.3,2.7,5.3,3.6c2.1,0.9,4.2,1.3,6.5,1.3c2.3,0,4.4-0.4,6.5-1.3c2-0.9,3.8-2.1,5.3-3.6
			c1.5-1.6,2.7-3.3,3.6-5.3c0.9-2.1,1.3-4.3,1.3-6.5c0-2.3-0.5-4.4-1.3-6.5c-0.8-2-2-3.8-3.6-5.3c-1.6-1.5-3.3-2.7-5.3-3.6
			c-2.1-0.9-4.3-1.3-6.5-1.3c-2.3,0-4.5,0.4-6.5,1.3c-2,0.9-3.8,2.1-5.3,3.6c-1.5,1.5-2.7,3.3-3.6,5.3
			C1258.5,597.2,1258.1,599.4,1258.1,601.7z"/>
		<path class="st0" d="M1373.5,626.9h-10.1v-25.2c0-2.3-0.4-4.4-1.3-6.5c-0.9-2-2.1-3.8-3.6-5.3c-1.6-1.5-3.3-2.7-5.3-3.6
			c-2.1-0.9-4.3-1.3-6.5-1.3c-2.3,0-4.5,0.4-6.5,1.3c-2,0.9-3.8,2.1-5.3,3.6c-1.5,1.6-2.7,3.3-3.6,5.3c-0.9,2.1-1.3,4.3-1.3,6.5
			v25.2h-10.1v-25.2c0-3.6,0.7-7.1,2.1-10.5c1.4-3.2,3.3-6.1,5.7-8.6c2.5-2.5,5.3-4.4,8.6-5.7c3.3-1.4,6.8-2.1,10.5-2.1
			c3.6,0,7.1,0.7,10.4,2.1c3.2,1.4,6.1,3.3,8.6,5.7c2.5,2.5,4.4,5.3,5.7,8.6c1.4,3.3,2.1,6.8,2.1,10.5V626.9z"/>
	</g>
</g>
<g>
	<g>
		<path class="st0" d="M844.2,521.2h-12v12.7h-5v-29.9h19.1v4h-14.1v9.1h12V521.2z"/>
		<path class="st0" d="M900,533.9h-5v-29.9h5V533.9z"/>
		<path class="st0" d="M966.6,526.9h-10.6l-2.3,7h-5.1l10.4-29.9h4.7l10.3,29.9h-5.1L966.6,526.9z M957.4,522.8h7.9l-3.8-11.8h-0.1
			L957.4,522.8z"/>
		<path class="st0" d="M1040.9,508.1h-9.2v25.9h-5v-25.9h-9.1v-4h23.3V508.1z"/>
		<path class="st0" d="M1102.1,526.9h-10.6l-2.3,7h-5.1l10.4-29.9h4.7l10.3,29.9h-5.1L1102.1,526.9z M1092.9,522.8h7.8l-3.8-11.8
			h-0.1L1092.9,522.8z"/>
		<path class="st0" d="M1162.2,529.9h14v4h-19v-29.9h5V529.9z"/>
		<path class="st0" d="M1247.5,521.7c0,3.6-1.1,6.7-3.4,9.1c-2.3,2.4-5.3,3.6-8.9,3.6c-3.6,0-6.5-1.2-8.7-3.6
			c-2.2-2.4-3.4-5.4-3.4-9.1v-5.4c0-3.6,1.1-6.7,3.4-9.1c2.2-2.4,5.1-3.6,8.7-3.6c3.6,0,6.6,1.2,8.9,3.6c2.3,2.4,3.4,5.4,3.4,9.1
			V521.7z M1242.5,516.3c0-2.5-0.7-4.5-2-6.1c-1.3-1.6-3.1-2.4-5.4-2.4c-2.2,0-3.9,0.8-5.2,2.4c-1.3,1.6-1.9,3.6-1.9,6.1v5.4
			c0,2.5,0.6,4.6,1.9,6.2c1.3,1.6,3,2.4,5.2,2.4c2.3,0,4.1-0.8,5.4-2.4c1.3-1.6,2-3.7,2-6.2V516.3z"/>
		<path class="st0" d="M1320.2,533.9h-5l-13.2-21.5l-0.1,0v21.5h-5v-29.9h5l13.2,21.5l0.1,0v-21.5h5V533.9z"/>
	</g>
</g>
</svg>
