<?xml version="1.0" encoding="utf-8"?>
<!-- Generator: Adobe Illustrator 22.0.1, SVG Export Plug-In . SVG Version: 6.00 Build 0)  -->
<svg version="1.1" id="Layer_1" xmlns="http://www.w3.org/2000/svg" xmlns:xlink="http://www.w3.org/1999/xlink" x="0px" y="0px"
	 viewBox="0 0 1920 1080" style="enable-background:new 0 0 1920 1080;" xml:space="preserve">
<style type="text/css">
	.st0{fill:#FF320A;}
</style>
<circle class="st0" cx="1020.2" cy="481.2" r="46.8"/>
<path class="st0" d="M924,519.9c4.9-3.3,7.9-6,11.9-11.8c0.4-0.6,0.8-1.2,1.1-1.8l0.2-0.3c1.1-1.8,1.9-3.4,2.7-5
	c0.4-0.9,0.8-1.7,1.1-2.7c0.6-1.5,1.1-3.3,1.7-5.7c0.4-1.6,1.3-6.4,1-12.7c0-0.7-0.2-3-0.2-3c0-0.3-0.2-1.9-0.3-3
	c-0.1-0.7-0.1-1.5-0.1-2.2c-0.2-17.2,4.9-37,17.3-49.8c12.7-13.1,32-17.8,49.6-17.8c0.8,0,1.5,0,2.3,0l0.4,0l0.3,0
	c0.2,0,0.3,0,0.5,0c0.4,0,0.9,0,1.4,0.1l0.8,0.1c1.4,0.2,2.7,0.4,3.9,0.4l10.4-0.8c0.2,0,1.8-0.5,1.8-0.5c2-0.4,3.8-1,5.5-1.6
	c0.9-0.3,1.8-0.7,2.7-1.1c1.7-0.8,3.3-1.6,5-2.6c0.8-0.4,1.5-0.9,2.2-1.4c2.7-1.9,4.8-3.5,6.5-5.3c8.7-8.7,13.4-20.2,13.4-32.5
	c0-12.3-4.8-23.8-13.5-32.5c-8.7-8.7-20.2-13.5-32.5-13.5c-12.3,0-23.8,4.8-32.4,13.4c-1.8,1.8-3.5,3.9-5.3,6.5
	c-0.5,0.7-1,1.5-1.4,2.3c-1,1.6-1.8,3.2-2.6,4.9l-0.1,0.3c-0.4,0.8-0.7,1.6-1,2.5c-0.6,1.8-1.2,3.6-1.7,5.8c0,0-0.4,1.4-0.4,1.6
	l-0.8,10.1c0,0.8,0.1,1.6,0.2,2.3c0.1,0.5,0.1,1.1,0.2,1.5c0.1,0.5,0.1,1,0.1,1.6c0,0.5,0.1,1.1,0.2,1.6l0.1,0.5l0,0.5
	c0.5,17.6-3.1,40.4-15.8,53.5c-10.7,11-28.1,12.7-42.8,14.7c-4.3,0.6-8.7-0.8-11.7-4c-3.5-3.6-5.9-7.6-5.8-12
	c0.3-9.4,11.6-16.6,20-21.9c0,0,0.1,0,0.1,0c3.2-1.9,6.3-4.3,9-7c0.1-0.1,0.1-0.1,0.1-0.1c8.7-8.7,13.4-20.2,13.4-32.5
	c0-12.3-4.8-23.8-13.5-32.5c-10.6-10.6-25.5-15.4-40.7-12.8c-6.4,1.1-12.5,3.6-17.8,7.4c-24.1,16.9-26.3,50.5-6.4,70.4
	c2.7,2.7,5.7,5.1,9,7c7.5,5.1,18.6,12.1,18.6,22c0,9.4-10.7,17.5-18.3,22.8c-0.5,0.3-1,0.6-1.5,1c-2.7,1.9-4.8,3.5-6.5,5.3
	c-17.9,17.9-17.9,47.1,0,65c8.7,8.7,20.2,13.4,32.5,13.4C907.3,528.1,916.3,525,924,519.9z"/>
<g>
	<g>
		<path class="st0" d="M792.1,735.3l-15.7,27.1l-3.9,6.9l-4-6.9l-15.7-27.1l5.9-3.4l13.7,23.7l13.7-23.7L792.1,735.3z"/>
		<path class="st0" d="M820,732.2c2.5,0,4.9,0.5,7.2,1.4c2.2,0.9,4.2,2.3,5.9,4c1.7,1.7,3,3.7,4,5.9c1,2.3,1.5,4.7,1.5,7.2v17.4h-7
			v-2.9c-1.6,1.3-3.4,2.3-5.3,3c-2,0.7-4.1,1.1-6.3,1.1c-2.5,0-4.9-0.5-7.2-1.4c-2.2-0.9-4.2-2.3-5.9-4c-1.7-1.7-3-3.7-4-5.9
			c-1-2.3-1.4-4.7-1.4-7.2c0-2.5,0.5-4.9,1.4-7.2c0.9-2.2,2.3-4.2,4-5.9c1.7-1.7,3.7-3,5.9-4C815.1,732.6,817.5,732.2,820,732.2z
			 M820,762.3c1.6,0,3.1-0.3,4.5-0.9c1.4-0.6,2.6-1.4,3.7-2.5c1.1-1.1,1.9-2.3,2.5-3.7c0.6-1.4,0.9-3,0.9-4.5c0-1.6-0.3-3.1-0.9-4.5
			c-0.6-1.4-1.4-2.6-2.5-3.7c-1.1-1.1-2.3-1.9-3.7-2.5c-1.4-0.6-3-0.9-4.5-0.9c-1.6,0-3.1,0.3-4.5,0.9c-1.4,0.6-2.6,1.4-3.7,2.5
			c-1.1,1.1-1.9,2.3-2.5,3.7c-0.6,1.4-0.9,3-0.9,4.5c0,1.6,0.3,3.1,0.9,4.5c0.6,1.4,1.4,2.6,2.5,3.7c1.1,1.1,2.3,1.9,3.7,2.5
			C816.9,762,818.4,762.3,820,762.3z M827.1,721.7l-14.1,8.1l-2-3.5l13.2-9.6L827.1,721.7z"/>
		<path class="st0" d="M852.1,726.4h7v41.7h-7V726.4z"/>
		<path class="st0" d="M890.1,732.2c2.5,0,4.9,0.5,7.2,1.4c2.2,0.9,4.2,2.3,5.9,4c1.7,1.7,3,3.7,4,5.9c1,2.3,1.4,4.7,1.4,7.2v17.4
			h-7v-2.9c-1.6,1.3-3.4,2.3-5.3,3c-2,0.7-4.1,1.1-6.3,1.1c-2.5,0-4.9-0.5-7.2-1.4c-2.2-0.9-4.2-2.3-5.9-4c-1.7-1.7-3-3.7-4-5.9
			c-1-2.3-1.4-4.7-1.4-7.2c0-2.5,0.5-4.9,1.4-7.2c0.9-2.2,2.3-4.2,4-5.9c1.7-1.7,3.7-3,5.9-4C885.2,732.6,887.6,732.2,890.1,732.2z
			 M890.1,762.3c1.6,0,3.1-0.3,4.5-0.9c1.4-0.6,2.6-1.4,3.7-2.5c1.1-1.1,1.9-2.3,2.5-3.7c0.6-1.4,0.9-3,0.9-4.5
			c0-1.6-0.3-3.1-0.9-4.5c-0.6-1.4-1.4-2.6-2.5-3.7c-1.1-1.1-2.3-1.9-3.7-2.5c-1.5-0.6-3-0.9-4.5-0.9c-1.6,0-3.1,0.3-4.5,0.9
			c-1.4,0.6-2.6,1.4-3.7,2.5c-1.1,1.1-1.9,2.3-2.5,3.7c-0.6,1.4-0.9,3-0.9,4.5c0,1.6,0.3,3.1,0.9,4.5c0.6,1.4,1.4,2.6,2.5,3.7
			c1.1,1.1,2.3,1.9,3.7,2.5C887,762,888.5,762.3,890.1,762.3z"/>
		<path class="st0" d="M945.1,766.8c-0.2,0.1-0.3,0.2-0.3,0.2c-2.8,1.5-5.7,2.3-8.8,2.3c-0.9,0-1.8-0.1-2.8-0.2
			c-4-0.6-7.5-2.3-10.4-5.1c-0.4-0.4-0.8-0.8-1.1-1.2l5.3-4.5c0.2,0.3,0.4,0.5,0.7,0.8c0.4,0.4,0.8,0.7,1.2,1
			c1.8,1.4,3.9,2.1,6.1,2.2c0.3,0,0.5,0,0.8,0c2,0,3.9-0.5,5.7-1.6c1-0.6,1.6-1.4,1.9-2.5c0.1-0.4,0.1-0.7,0.1-1.1
			c0-0.7-0.2-1.3-0.6-2c-0.4-0.7-1-1.2-1.8-1.6c-0.5-0.2-1.1-0.3-1.7-0.3c-0.4,0-0.7,0-1.1,0.1c-0.3,0.1-0.6,0.2-1,0.3
			c-1.5,0.7-3.1,1.1-4.6,1.2c-0.3,0-0.7,0-1,0c-1.1,0-2.1-0.1-3-0.4c-2-0.6-3.6-1.5-4.6-2.6c-0.7-0.7-1.3-1.5-1.8-2.3
			c-0.7-1.3-1.2-2.6-1.4-4.1c-0.1-0.5-0.1-0.9-0.1-1.4c0-0.9,0.1-1.8,0.3-2.7c0.3-1.4,0.9-2.6,1.7-3.8c0.8-1.2,1.9-2.1,3.1-2.9
			c0.1,0,0.2-0.1,0.3-0.2c0.2-0.1,0.3-0.2,0.3-0.2c2.8-1.5,5.8-2.3,8.8-2.3c0.9,0,1.9,0.1,2.9,0.2c4.1,0.6,7.6,2.4,10.4,5.3
			l-4.9,4.9c-0.4-0.4-0.9-0.9-1.4-1.2c-1.8-1.3-3.9-2.1-6.1-2.2c-0.3,0-0.5,0-0.8,0c-2,0-3.9,0.5-5.7,1.6c-1,0.6-1.6,1.4-1.9,2.5
			c-0.1,0.4-0.2,0.7-0.2,1.1c0,0.7,0.2,1.3,0.6,2c0.4,0.7,1,1.2,1.8,1.6c0.5,0.2,1.1,0.3,1.7,0.3c0.4,0,0.7,0,1.1-0.1
			c0.3-0.1,0.7-0.2,1-0.3c1.5-0.7,3.1-1.1,4.6-1.2c0.3,0,0.7,0,1,0c1.1,0,2.1,0.1,3,0.4c2,0.6,3.6,1.5,4.6,2.6
			c0.7,0.7,1.3,1.5,1.8,2.3c0.7,1.3,1.2,2.6,1.4,4.1c0.1,0.5,0.1,1,0.1,1.5c0,0.9-0.1,1.8-0.3,2.7c-0.3,1.4-0.9,2.6-1.7,3.7
			c-0.8,1.2-1.9,2.1-3.1,2.9C945.4,766.6,945.3,766.7,945.1,766.8z"/>
		<path class="st0" d="M996.7,733.3v7l-23.2,20.9h23.2v7H963v-7l23.4-20.9H963v-7H996.7z"/>
		<path class="st0" d="M1010.3,733.3h7v17.4c0,1.6,0.3,3.1,0.9,4.5c0.6,1.4,1.4,2.6,2.5,3.7c1.1,1.1,2.3,1.9,3.7,2.5
			c1.4,0.6,3,0.9,4.5,0.9s3.1-0.3,4.5-0.9c1.4-0.6,2.6-1.4,3.7-2.5c1.1-1.1,1.9-2.3,2.5-3.7c0.6-1.4,0.9-3,0.9-4.5v-17.4h7v17.4
			c0,2.5-0.5,4.9-1.5,7.2c-0.9,2.2-2.3,4.2-4,5.9c-1.7,1.7-3.7,3-5.9,4c-2.3,1-4.7,1.4-7.2,1.4c-2.5,0-4.9-0.5-7.2-1.4
			c-2.2-0.9-4.2-2.3-5.9-4c-1.7-1.7-3-3.7-4-5.9c-1-2.3-1.4-4.7-1.4-7.2V733.3z M1035.9,721.7l-14.1,8.1l-2-3.5l13.2-9.6
			L1035.9,721.7z"/>
		<path class="st0" d="M1067.9,726.4v9.5l2.8-1.6l3.5,6l-6.3,3.6v24.2h-7v-20.2l-2.8,1.6l-3.5-6l6.3-3.6v-13.5H1067.9z"/>
		<path class="st0" d="M1098.9,732.2c2.5,0,4.9,0.5,7.2,1.4c2.2,0.9,4.2,2.3,5.9,4c1.7,1.7,3,3.7,4,5.9c1,2.3,1.4,4.7,1.4,7.2
			c0,2.5-0.5,4.9-1.4,7.2c-0.9,2.2-2.3,4.2-4,5.9c-1.7,1.7-3.7,3-5.9,4c-2.3,1-4.7,1.4-7.2,1.4c-2.5,0-4.9-0.5-7.2-1.4
			c-2.2-0.9-4.2-2.3-5.9-4c-1.7-1.7-3-3.7-4-5.9c-1-2.3-1.4-4.7-1.4-7.2c0-2.5,0.5-4.9,1.4-7.2c0.9-2.2,2.3-4.2,4-5.9
			c1.7-1.7,3.7-3,5.9-4C1094,732.6,1096.4,732.2,1098.9,732.2z M1087.3,750.7c0,1.6,0.3,3.1,0.9,4.5c0.6,1.4,1.4,2.6,2.5,3.7
			c1.1,1.1,2.3,1.9,3.7,2.5c1.4,0.6,2.9,0.9,4.5,0.9c1.6,0,3.1-0.3,4.5-0.9c1.4-0.6,2.6-1.4,3.7-2.5c1.1-1.1,1.9-2.3,2.5-3.7
			c0.6-1.4,0.9-3,0.9-4.5c0-1.6-0.3-3.1-0.9-4.5c-0.6-1.4-1.4-2.6-2.5-3.7c-1.1-1.1-2.3-1.9-3.7-2.5c-1.5-0.6-3-0.9-4.5-0.9
			c-1.6,0-3.1,0.3-4.5,0.9c-1.4,0.6-2.6,1.4-3.7,2.5c-1.1,1.1-1.9,2.3-2.5,3.7C1087.6,747.6,1087.3,749.1,1087.3,750.7z"/>
		<path class="st0" d="M1167,768.1h-7v-17.4c0-1.6-0.3-3.1-0.9-4.5c-0.6-1.4-1.4-2.6-2.5-3.7c-1.1-1.1-2.3-1.9-3.7-2.5
			c-1.4-0.6-3-0.9-4.5-0.9s-3.1,0.3-4.5,0.9c-1.4,0.6-2.6,1.4-3.7,2.5c-1.1,1.1-1.9,2.3-2.5,3.7c-0.6,1.4-0.9,3-0.9,4.5v17.4h-7
			v-17.4c0-2.5,0.5-4.9,1.4-7.2c0.9-2.2,2.3-4.2,4-5.9c1.7-1.7,3.7-3,5.9-4c2.3-1,4.7-1.4,7.2-1.4c2.5,0,4.9,0.5,7.2,1.4
			c2.2,0.9,4.2,2.3,5.9,4c1.7,1.7,3,3.7,4,5.9c1,2.3,1.5,4.7,1.5,7.2V768.1z"/>
	</g>
</g>
<g>
	<g>
		<path class="st0" d="M801.4,695.1h-8.3v8.8h-3.4v-20.6h13.2v2.8h-9.8v6.3h8.3V695.1z"/>
		<path class="st0" d="M839.9,703.9h-3.4v-20.6h3.4V703.9z"/>
		<path class="st0" d="M886,699.1h-7.3l-1.6,4.8h-3.6l7.2-20.6h3.3l7.1,20.6h-3.6L886,699.1z M879.6,696.2h5.4l-2.7-8.1h-0.1
			L879.6,696.2z"/>
		<path class="st0" d="M937.2,686h-6.4v17.9h-3.4V686h-6.3v-2.8h16.1V686z"/>
		<path class="st0" d="M979.5,699.1h-7.3l-1.6,4.8h-3.6l7.2-20.6h3.3l7.1,20.6h-3.6L979.5,699.1z M973.2,696.2h5.4l-2.6-8.1h-0.1
			L973.2,696.2z"/>
		<path class="st0" d="M1021.1,701.2h9.7v2.7h-13.1v-20.6h3.4V701.2z"/>
		<path class="st0" d="M1080,695.4c0,2.5-0.8,4.6-2.4,6.3c-1.6,1.7-3.6,2.5-6.2,2.5c-2.5,0-4.5-0.8-6-2.5c-1.5-1.7-2.3-3.7-2.3-6.3
			v-3.7c0-2.5,0.8-4.6,2.3-6.3c1.5-1.7,3.5-2.5,6-2.5c2.5,0,4.6,0.8,6.2,2.5c1.6,1.7,2.4,3.7,2.4,6.3V695.4z M1076.5,691.7
			c0-1.7-0.5-3.1-1.4-4.2c-0.9-1.1-2.2-1.7-3.7-1.7c-1.5,0-2.7,0.6-3.6,1.7c-0.9,1.1-1.3,2.5-1.3,4.2v3.7c0,1.7,0.4,3.2,1.3,4.3
			s2.1,1.7,3.6,1.7c1.6,0,2.8-0.6,3.7-1.7c0.9-1.1,1.4-2.5,1.4-4.3V691.7z"/>
		<path class="st0" d="M1130.2,703.9h-3.4l-9.1-14.9l-0.1,0v14.8h-3.4v-20.6h3.4l9.1,14.9l0.1,0v-14.8h3.4V703.9z"/>
	</g>
</g>
</svg>
