<?xml version="1.0" encoding="utf-8"?>
<!-- Generator: Adobe Illustrator 22.0.1, SVG Export Plug-In . SVG Version: 6.00 Build 0)  -->
<svg version="1.1" id="Layer_1" xmlns="http://www.w3.org/2000/svg" xmlns:xlink="http://www.w3.org/1999/xlink" x="0px" y="0px"
	 viewBox="0 0 1920 1080" style="enable-background:new 0 0 1920 1080;" xml:space="preserve">
<style type="text/css">
	.st0{fill:#FF320A;}
</style>
<circle class="st0" cx="1039.9" cy="473.1" r="52.3"/>
<path class="st0" d="M932.5,516.2c5.5-3.6,8.8-6.7,13.2-13.2c0.5-0.7,0.8-1.3,1.2-2l0.2-0.4c1.2-2,2.1-3.8,3-5.6
	c0.4-1,0.9-1.9,1.3-3c0.7-1.7,1.3-3.7,1.9-6.3c0.4-1.8,1.4-7.1,1.1-14.2c0-0.8-0.2-3.3-0.2-3.3c0-0.4-0.2-2.1-0.3-3.4
	c-0.1-0.8-0.1-1.7-0.1-2.5c-0.2-19.2,7.6-38.2,21.4-52.5c14.2-14.6,33.6-23,53.2-23c0.9,0,1.7,0,2.6,0l0.5,0l0.4,0.1
	c0.2,0,0.4,0,0.6,0c0.5,0,1,0.1,1.5,0.1l0.9,0.1c1.5,0.2,3,0.4,4.4,0.5l11.6-0.9c0.2-0.1,2-0.6,2-0.6c2.2-0.5,4.3-1.1,6.2-1.8
	c1-0.4,2-0.8,3-1.3c1.9-0.9,3.7-1.8,5.6-3c0.9-0.5,1.7-1,2.4-1.5c3.1-2.1,5.3-3.9,7.3-5.9c9.7-9.7,15-22.5,15-36.2
	c0-13.7-5.3-26.6-15-36.3c-9.7-9.7-22.6-15-36.3-15c-13.7,0-26.6,5.3-36.2,15c-2,2-3.9,4.4-5.9,7.3c-0.5,0.8-1.1,1.7-1.6,2.5
	c-1.1,1.8-2,3.6-2.9,5.4l-0.1,0.3c-0.4,0.9-0.8,1.8-1.2,2.7c-0.7,2-1.3,4.1-1.9,6.4c0,0-0.4,1.5-0.5,1.8l-0.8,11.3
	c0,0.9,0.1,1.7,0.2,2.6c0.1,0.6,0.1,1.2,0.2,1.7c0.1,0.6,0.1,1.2,0.1,1.8c0,0.6,0.1,1.2,0.2,1.8l0.1,0.6l0,0.6
	c0.6,19.6-7.2,39.2-21.3,53.8c-12,12.3-27.7,20.2-44.1,22.3c-4.8,0.6-9.7-0.9-13.1-4.4c-3.9-4-6.6-8.5-6.4-13.4
	c0.3-10.5,13-18.5,22.3-24.5c0,0,0.1,0,0.1-0.1c3.6-2.1,7-4.7,10.1-7.8c0.1-0.1,0.2-0.1,0.2-0.1c9.7-9.7,15-22.6,15-36.3
	c0-13.7-5.3-26.6-15-36.3c-11.8-11.8-28.4-17.2-45.5-14.2c-7.1,1.2-14,4.1-19.9,8.2c-27,18.8-29.3,56.4-7.2,78.6
	c3,3.1,6.4,5.7,10,7.8c8.4,5.8,20.8,13.5,20.8,24.6c0,10.5-12,19.5-20.4,25.5c-0.6,0.3-1.1,0.7-1.7,1.1c-3,2.1-5.3,4-7.3,5.9
	c-20,20-20,52.6,0,72.6c9.7,9.7,22.6,15,36.3,15C913.9,525.4,923.9,521.9,932.5,516.2z"/>
<g>
	<g>
		<path class="st0" d="M785.2,756.8L767.7,787l-4.4,7.7l-4.4-7.7l-17.5-30.3l6.6-3.9l15.3,26.4l15.3-26.4L785.2,756.8z"/>
		<path class="st0" d="M816.3,753.3c2.8,0,5.5,0.5,8.1,1.6c2.5,1.1,4.7,2.5,6.6,4.4c1.9,1.9,3.4,4.1,4.4,6.6
			c1.1,2.6,1.6,5.3,1.6,8.1v19.4h-7.8v-3.2c-1.8,1.4-3.8,2.6-6,3.3c-2.2,0.8-4.6,1.2-7,1.2c-2.8,0-5.5-0.5-8.1-1.6
			c-2.5-1.1-4.7-2.5-6.6-4.4c-1.9-1.9-3.4-4.1-4.4-6.6c-1.1-2.6-1.6-5.3-1.6-8.1c0-2.8,0.5-5.5,1.6-8.1c1.1-2.5,2.5-4.7,4.4-6.6
			c1.9-1.9,4.1-3.4,6.6-4.4C810.8,753.8,813.5,753.3,816.3,753.3z M816.3,786.9c1.7,0,3.4-0.3,5-1c1.5-0.7,2.9-1.6,4.1-2.8
			c1.2-1.2,2.1-2.6,2.8-4.1c0.7-1.6,1-3.3,1-5c0-1.7-0.3-3.4-1-5.1c-0.6-1.6-1.6-2.9-2.8-4.1c-1.2-1.2-2.6-2.1-4.1-2.8
			c-1.6-0.7-3.3-1-5-1c-1.8,0-3.5,0.3-5.1,1c-1.6,0.7-2.9,1.6-4.1,2.8c-1.2,1.2-2.1,2.6-2.8,4.1c-0.7,1.6-1,3.3-1,5.1
			c0,1.7,0.3,3.4,1,5c0.7,1.5,1.6,2.9,2.8,4.1c1.2,1.2,2.6,2.1,4.1,2.8C812.9,786.6,814.6,786.9,816.3,786.9z M824.3,741.6
			l-15.7,9.1l-2.3-3.9L821,736L824.3,741.6z"/>
		<path class="st0" d="M852.2,746.8h7.8v46.6h-7.8V746.8z"/>
		<path class="st0" d="M894.6,753.3c2.8,0,5.5,0.5,8.1,1.6c2.5,1.1,4.7,2.5,6.6,4.4c1.9,1.9,3.4,4.1,4.4,6.6
			c1.1,2.6,1.6,5.3,1.6,8.1v19.4h-7.8v-3.2c-1.8,1.4-3.8,2.6-6,3.3c-2.2,0.8-4.6,1.2-7,1.2c-2.8,0-5.5-0.5-8.1-1.6
			c-2.5-1.1-4.7-2.5-6.6-4.4c-1.9-1.9-3.4-4.1-4.4-6.6c-1.1-2.6-1.6-5.3-1.6-8.1c0-2.8,0.5-5.5,1.6-8.1c1.1-2.5,2.5-4.7,4.4-6.6
			c1.9-1.9,4.1-3.4,6.6-4.4C889.1,753.8,891.8,753.3,894.6,753.3z M894.6,786.9c1.7,0,3.4-0.3,5.1-1c1.5-0.7,2.9-1.6,4.1-2.8
			c1.2-1.2,2.1-2.6,2.7-4.1c0.7-1.6,1-3.3,1-5c0-1.7-0.3-3.4-1-5.1c-0.6-1.6-1.6-2.9-2.7-4.1c-1.2-1.2-2.6-2.1-4.1-2.8
			c-1.6-0.7-3.3-1-5.1-1c-1.8,0-3.5,0.3-5,1c-1.6,0.7-2.9,1.6-4.1,2.8c-1.2,1.2-2.1,2.6-2.8,4.1c-0.7,1.6-1,3.3-1,5.1
			c0,1.7,0.3,3.4,1,5c0.7,1.5,1.6,2.9,2.8,4.1c1.2,1.2,2.6,2.1,4.1,2.8C891.1,786.6,892.8,786.9,894.6,786.9z"/>
		<path class="st0" d="M956.1,791.9c-0.2,0.1-0.3,0.2-0.4,0.2c-3.1,1.7-6.4,2.6-9.8,2.6c-1,0-2.1-0.1-3.1-0.2
			c-4.5-0.6-8.4-2.6-11.6-5.7c-0.4-0.4-0.8-0.9-1.2-1.3l6-5c0.2,0.3,0.5,0.6,0.8,0.8c0.4,0.4,0.9,0.8,1.4,1.2c2,1.5,4.3,2.3,6.9,2.5
			c0.3,0,0.6,0,0.9,0c2.3,0,4.4-0.6,6.4-1.7c1.1-0.6,1.8-1.5,2.1-2.8c0.1-0.4,0.2-0.8,0.2-1.2c0-0.8-0.2-1.5-0.6-2.2
			c-0.5-0.8-1.2-1.4-2-1.8c-0.6-0.3-1.2-0.4-1.8-0.4c-0.4,0-0.8,0.1-1.3,0.2c-0.3,0.1-0.7,0.2-1.1,0.4c-1.7,0.8-3.4,1.2-5.1,1.4
			c-0.4,0-0.7,0-1.1,0c-1.2,0-2.3-0.2-3.3-0.5c-2.3-0.7-4-1.7-5.2-2.8c-0.8-0.8-1.4-1.6-2-2.6c-0.8-1.4-1.3-2.9-1.6-4.5
			c-0.1-0.5-0.1-1-0.1-1.6c0-1,0.1-2,0.4-3c0.4-1.5,1-2.9,1.9-4.2c0.9-1.3,2.1-2.4,3.5-3.2c0.1,0,0.2-0.1,0.4-0.2
			c0.2-0.1,0.3-0.2,0.4-0.2c3.2-1.7,6.4-2.6,9.9-2.6c1.1,0,2.1,0.1,3.2,0.2c4.6,0.7,8.4,2.7,11.7,6L955,765c-0.5-0.5-1-1-1.6-1.4
			c-2.1-1.5-4.3-2.3-6.9-2.5c-0.3,0-0.6,0-0.9,0c-2.3,0-4.4,0.6-6.4,1.7c-1.1,0.6-1.8,1.5-2.1,2.8c-0.1,0.4-0.2,0.8-0.2,1.2
			c0,0.8,0.2,1.5,0.7,2.2c0.5,0.8,1.2,1.4,2,1.8c0.6,0.3,1.2,0.4,1.8,0.4c0.4,0,0.8-0.1,1.3-0.2c0.4-0.1,0.7-0.2,1.1-0.4
			c1.7-0.8,3.4-1.2,5.1-1.4c0.4,0,0.7,0,1.1,0c1.2,0,2.3,0.2,3.3,0.5c2.2,0.7,4,1.7,5.2,2.8c0.8,0.8,1.4,1.6,2,2.6
			c0.8,1.4,1.3,2.9,1.5,4.5c0.1,0.6,0.1,1.1,0.1,1.7c0,1-0.1,2-0.4,3c-0.4,1.5-1,2.9-1.9,4.2c-0.9,1.3-2.1,2.4-3.5,3.2
			C956.4,791.7,956.3,791.8,956.1,791.9z"/>
		<path class="st0" d="M1013.6,754.6v7.8l-25.9,23.3h25.9v7.8h-37.6v-7.8l26.1-23.3h-26.1v-7.8H1013.6z"/>
		<path class="st0" d="M1028.8,754.6h7.8V774c0,1.7,0.3,3.4,1,5c0.7,1.5,1.6,2.9,2.8,4.1c1.2,1.2,2.6,2.1,4.1,2.8
			c1.6,0.7,3.3,1,5.1,1c1.7,0,3.4-0.3,5-1c1.6-0.6,2.9-1.6,4.1-2.8c1.2-1.2,2.1-2.6,2.8-4.1c0.7-1.6,1-3.3,1-5v-19.4h7.8V774
			c0,2.8-0.5,5.5-1.6,8.1c-1.1,2.5-2.5,4.7-4.4,6.6c-1.9,1.9-4.1,3.4-6.6,4.4c-2.6,1.1-5.3,1.6-8.1,1.6c-2.8,0-5.5-0.5-8.1-1.6
			c-2.5-1.1-4.7-2.5-6.6-4.4c-1.9-1.9-3.4-4.1-4.4-6.6c-1.1-2.6-1.6-5.3-1.6-8.1V754.6z M1057.5,741.6l-15.7,9.1l-2.3-3.9l14.7-10.7
			L1057.5,741.6z"/>
		<path class="st0" d="M1093.2,746.8v10.6l3.1-1.8l3.9,6.7l-7,4v27h-7.8v-22.5l-3.1,1.8l-3.9-6.7l7-4v-15.1H1093.2z"/>
		<path class="st0" d="M1127.8,753.3c2.8,0,5.5,0.5,8.1,1.6c2.5,1.1,4.7,2.5,6.6,4.4c1.9,1.9,3.4,4.1,4.4,6.6
			c1.1,2.6,1.6,5.3,1.6,8.1c0,2.8-0.5,5.5-1.6,8.1c-1.1,2.5-2.5,4.7-4.4,6.6c-1.9,1.9-4.1,3.4-6.6,4.4c-2.6,1.1-5.3,1.6-8.1,1.6
			c-2.8,0-5.5-0.5-8.1-1.6c-2.5-1.1-4.7-2.5-6.6-4.4c-1.9-1.9-3.4-4.1-4.4-6.6c-1.1-2.6-1.6-5.3-1.6-8.1c0-2.8,0.5-5.5,1.6-8.1
			c1.1-2.5,2.5-4.7,4.4-6.6c1.9-1.9,4.1-3.4,6.6-4.4C1122.3,753.8,1125,753.3,1127.8,753.3z M1114.9,774c0,1.7,0.3,3.4,1,5
			c0.7,1.5,1.6,2.9,2.8,4.1c1.2,1.2,2.6,2.1,4.1,2.8c1.6,0.7,3.3,1,5,1c1.7,0,3.4-0.3,5.1-1c1.5-0.7,2.9-1.6,4.1-2.8
			c1.2-1.2,2.1-2.6,2.7-4.1c0.7-1.6,1-3.3,1-5c0-1.7-0.3-3.4-1-5.1c-0.6-1.6-1.6-2.9-2.7-4.1c-1.2-1.2-2.6-2.1-4.1-2.8
			c-1.6-0.7-3.3-1-5.1-1c-1.8,0-3.5,0.3-5,1c-1.6,0.7-2.9,1.6-4.1,2.8c-1.2,1.2-2.1,2.6-2.8,4.1
			C1115.2,770.6,1114.9,772.2,1114.9,774z"/>
		<path class="st0" d="M1203.8,793.4h-7.8V774c0-1.7-0.3-3.4-1-5.1c-0.7-1.5-1.6-2.9-2.8-4.1c-1.2-1.2-2.6-2.1-4.1-2.8
			c-1.6-0.7-3.3-1-5-1c-1.7,0-3.4,0.3-5.1,1c-1.6,0.7-2.9,1.6-4.1,2.8c-1.2,1.2-2.1,2.6-2.8,4.1c-0.7,1.6-1,3.3-1,5.1v19.4h-7.8V774
			c0-2.8,0.5-5.5,1.6-8.1c1.1-2.5,2.5-4.7,4.4-6.6c1.9-1.9,4.1-3.4,6.6-4.4c2.6-1.1,5.3-1.6,8.1-1.6c2.8,0,5.5,0.5,8.1,1.6
			c2.5,1.1,4.7,2.5,6.6,4.4c1.9,1.9,3.4,4.1,4.4,6.6c1.1,2.6,1.6,5.3,1.6,8.1V793.4z"/>
	</g>
</g>
<g>
	<g>
		<path class="st0" d="M795.6,711.9h-9.3v9.8h-3.8v-23h14.7v3.1h-10.9v7h9.3V711.9z"/>
		<path class="st0" d="M838.6,721.7h-3.8v-23h3.8V721.7z"/>
		<path class="st0" d="M890,716.3h-8.2l-1.8,5.4h-4l8-23h3.7l7.9,23h-4L890,716.3z M882.9,713.1h6.1l-3-9.1h-0.1L882.9,713.1z"/>
		<path class="st0" d="M947.3,701.8h-7.1v19.9h-3.8v-19.9h-7v-3.1h18V701.8z"/>
		<path class="st0" d="M994.5,716.3h-8.2l-1.8,5.4h-4l8-23h3.7l7.9,23h-4L994.5,716.3z M987.4,713.1h6.1l-3-9.1h-0.1L987.4,713.1z"
			/>
		<path class="st0" d="M1040.9,718.6h10.8v3.1h-14.6v-23h3.8V718.6z"/>
		<path class="st0" d="M1106.6,712.3c0,2.8-0.9,5.1-2.6,7c-1.8,1.9-4.1,2.8-6.9,2.8c-2.8,0-5-0.9-6.7-2.8c-1.7-1.9-2.6-4.2-2.6-7
			v-4.1c0-2.8,0.9-5.1,2.6-7c1.7-1.9,4-2.8,6.7-2.8c2.8,0,5.1,0.9,6.9,2.8c1.8,1.9,2.7,4.2,2.7,7V712.3z M1102.8,708.1
			c0-1.9-0.5-3.5-1.5-4.7c-1-1.2-2.4-1.9-4.2-1.9c-1.7,0-3,0.6-4,1.9c-1,1.2-1.5,2.8-1.5,4.7v4.2c0,1.9,0.5,3.5,1.5,4.8
			c1,1.2,2.3,1.9,4,1.9c1.8,0,3.1-0.6,4.2-1.9c1-1.2,1.5-2.8,1.5-4.8V708.1z"/>
		<path class="st0" d="M1162.7,721.7h-3.8l-10.2-16.6l-0.1,0v16.6h-3.8v-23h3.8l10.2,16.6l0.1,0v-16.6h3.8V721.7z"/>
	</g>
</g>
</svg>
